<svg xmlns="http://www.w3.org/2000/svg" viewBox="0 0 380 112" role="img" aria-label="Signal Index convergence"><g fill="none" stroke="#f0eee7" stroke-width="2"><path d="M3 14h54c35 0 45 42 92 42h65"/><path d="M3 27h50c39 0 47 29 96 29h65"/><path d="M3 40h46c43 0 50 16 100 16h65"/><path d="M3 53h211"/><path d="M3 66h46c43 0 50-10 100-10h65"/><path d="M3 79h50c39 0 47-23 96-23h65"/><path d="M3 92h54c35 0 45-36 92-36h65"/></g><circle cx="220" cy="56" r="7" fill="#dfff38"/><text x="242" y="49" fill="#f0eee7" font-family="Avenir Next,sans-serif" font-size="22" font-weight="650">SIGNAL</text><text x="242" y="73" fill="#f0eee7" font-family="Avenir Next,sans-serif" font-size="22" font-weight="350">INDEX</text></svg>
